<svg width="112" height="196" viewBox="0 0 112 196" fill="none" xmlns="http://www.w3.org/2000/svg">
<g filter="url(#filter0_f_26_34)">
<path fill-rule="evenodd" clip-rule="evenodd" d="M95.9974 5C100.359 5 103.918 8.49426 103.996 12.8555L107.066 183.02C107.184 189.608 99.734 193.506 94.389 189.652L87.9496 185.011C86.5874 184.029 84.951 183.5 83.2718 183.5H31.89C30.2405 183.5 28.6311 184.01 27.2826 184.96L19.6888 190.31C14.4426 194.006 7.19815 190.331 7.08238 183.914L4.00133 13.1445C3.92061 8.67052 7.52561 5 12.0004 5H95.9974ZM37.8548 18C33.4366 18 29.8548 21.5817 29.8548 26V104C29.8548 108.418 33.4366 112 37.8548 112H77.8548C82.273 112 85.8548 108.418 85.8548 104V26C85.8548 21.5818 82.273 18.0001 77.8548 18H37.8548Z" fill="black"/>
<path d="M31 25.5C31 22.4624 33.4624 20 36.5 20C39.5376 20 42 22.4624 42 25.5V103.5C42 106.538 39.5376 109 36.5 109C33.4624 109 31 106.538 31 103.5V25.5Z" fill="black"/>
<path d="M45 25.5C45 22.4624 47.4624 20 50.5 20C53.5376 20 56 22.4624 56 25.5V103.5C56 106.538 53.5376 109 50.5 109C47.4624 109 45 106.538 45 103.5V25.5Z" fill="black"/>
<path d="M59 25.5C59 22.4624 61.4624 20 64.5 20C67.5376 20 70 22.4624 70 25.5V103.5C70 106.538 67.5376 109 64.5 109C61.4624 109 59 106.538 59 103.5V25.5Z" fill="black"/>
<path d="M73 25.5C73 22.4624 75.4624 20 78.5 20C81.5376 20 84 22.4624 84 25.5V103.5C84 106.538 81.5376 109 78.5 109C75.4624 109 73 106.538 73 103.5V25.5Z" fill="black"/>
</g>
<path fill-rule="evenodd" clip-rule="evenodd" d="M91.9974 0C96.3594 0 99.9176 3.49426 99.9964 7.85547L103.066 178.02C103.184 184.608 95.734 188.506 90.389 184.652L83.9496 180.011C82.5874 179.029 80.951 178.5 79.2718 178.5H27.89C26.2405 178.5 24.6311 179.01 23.2826 179.96L15.6888 185.31C10.4426 189.006 3.19815 185.331 3.08238 178.914L0.00132949 8.14453C-0.0793873 3.67052 3.52561 0 8.00035 0H91.9974ZM33.8548 13C29.4366 13 25.8548 16.5817 25.8548 21V99C25.8548 103.418 29.4366 107 33.8548 107H73.8548C78.273 107 81.8548 103.418 81.8548 99V21C81.8548 16.5818 78.273 13.0001 73.8548 13H33.8548Z" fill="#5E442F"/>
<path d="M27 20.5C27 17.4624 29.4624 15 32.5 15C35.5376 15 38 17.4624 38 20.5V98.5C38 101.538 35.5376 104 32.5 104C29.4624 104 27 101.538 27 98.5V20.5Z" fill="#517F42"/>
<path d="M41 20.5C41 17.4624 43.4624 15 46.5 15C49.5376 15 52 17.4624 52 20.5V98.5C52 101.538 49.5376 104 46.5 104C43.4624 104 41 101.538 41 98.5V20.5Z" fill="#517F42"/>
<path d="M55 20.5C55 17.4624 57.4624 15 60.5 15C63.5376 15 66 17.4624 66 20.5V98.5C66 101.538 63.5376 104 60.5 104C57.4624 104 55 101.538 55 98.5V20.5Z" fill="#787F42"/>
<path d="M69 20.5C69 17.4624 71.4624 15 74.5 15C77.5376 15 80 17.4624 80 20.5V98.5C80 101.538 77.5376 104 74.5 104C71.4624 104 69 101.538 69 98.5V20.5Z" fill="#7F4242"/>
<defs>
<filter id="filter0_f_26_34" x="0" y="1" width="111.067" height="194.783" filterUnits="userSpaceOnUse" color-interpolation-filters="sRGB">
<feFlood flood-opacity="0" result="BackgroundImageFix"/>
<feBlend mode="normal" in="SourceGraphic" in2="BackgroundImageFix" result="shape"/>
<feGaussianBlur stdDeviation="2" result="effect1_foregroundBlur_26_34"/>
</filter>
</defs>
</svg>
